<?xml version="1.0" ?><svg fill="none" height="24" viewBox="0 0 24 24" width="24" xmlns="http://www.w3.org/2000/svg"><path clip-rule="evenodd" d="M12 3.5C10.067 3.5 8.5 5.067 8.5 7C8.5 8.933 10.067 10.5 12 10.5C13.933 10.5 15.5 8.933 15.5 7C15.5 5.067 13.933 3.5 12 3.5ZM7.5 7C7.5 4.51472 9.51472 2.5 12 2.5C14.4853 2.5 16.5 4.51472 16.5 7C16.5 9.48528 14.4853 11.5 12 11.5C9.51472 11.5 7.5 9.48528 7.5 7Z" fill="black" fill-rule="evenodd"/><path clip-rule="evenodd" d="M4.5164 20.5H19.4836C19.2263 16.591 15.9741 13.5 12 13.5C8.02588 13.5 4.7737 16.591 4.5164 20.5ZM3.5 21C3.5 16.3056 7.30558 12.5 12 12.5C16.6944 12.5 20.5 16.3056 20.5 21C20.5 21.2761 20.2761 21.5 20 21.5H4C3.72386 21.5 3.5 21.2761 3.5 21Z" fill="black" fill-rule="evenodd"/><path clip-rule="evenodd" d="M4 2C4 1.72386 4.22386 1.5 4.5 1.5H7.5V2.5H5V5.5H4V2ZM19 2.5H16.5V1.5H19.5C19.7761 1.5 20 1.72386 20 2V5.5H19V2.5ZM5 11.5V8.5H4V12C4 12.2761 4.22386 12.5 4.5 12.5H7.5V11.5H5ZM19 11.5V8.5H20V12C20 12.2761 19.7761 12.5 19.5 12.5H16.5V11.5H19Z" fill="black" fill-rule="evenodd"/></svg>